<svg xmlns="http://www.w3.org/2000/svg" viewBox="0 0 414 812"><defs><style>.cls-1{fill:#cfd2b2;}.cls-2{fill:#5497a7;}.cls-3{fill:#456990;}.cls-4{fill:#9c9990;}.cls-5{font-size:18px;}.cls-5,.cls-7,.cls-8{fill:#8c8c8c;}.cls-5,.cls-7{font-family:ArialMT, Arial;}.cls-6{letter-spacing:-0.07em;}.cls-7,.cls-8{font-size:20px;}.cls-8,.cls-9{font-family:SourceHanSansTW-Light-B5pc-H, Source Han Sans TW;}.cls-9{font-size:15.14px;}.cls-10{fill:none;stroke:#ccc;stroke-miterlimit:10;stroke-width:0.51px;}</style></defs><title>圖表1_1</title><g id="mob圖表1"><rect class="cls-1" x="57" y="464.1" width="267.1" height="15"/><rect class="cls-2" x="57" y="480.3" width="66.8" height="15"/><rect class="cls-1" x="57" y="586.1" width="300.5" height="15"/><rect class="cls-3" x="57" y="618" width="33.4" height="15"/><rect class="cls-2" x="57" y="602.1" width="66.8" height="15"/><rect class="cls-4" x="57" y="633.9" width="33.4" height="15"/><rect class="cls-2" x="57" y="127" width="33.4" height="15"/><text class="cls-5" transform="translate(7.7 141.2)">20<tspan class="cls-6" x="20" y="0">1</tspan><tspan x="28.7" y="0">1</tspan></text><rect class="cls-2" x="57" y="203.2" width="33.4" height="15"/><rect class="cls-1" x="57" y="187" width="100.2" height="15"/><text class="cls-5" transform="translate(7.7 210)">2012</text><rect class="cls-2" x="57" y="263.8" width="33.4" height="15"/><rect class="cls-3" x="57" y="280.1" width="66.8" height="15"/><rect class="cls-1" x="57" y="247.5" width="233.8" height="15"/><text class="cls-5" transform="translate(7.7 278.4)">2013</text><rect class="cls-2" x="57" y="340.7" width="66.8" height="15"/><rect class="cls-1" x="57" y="324.4" width="167" height="15"/><text class="cls-5" transform="translate(7.7 346.7)">2014</text><rect class="cls-1" x="57" y="393.1" width="333.9" height="15"/><rect class="cls-3" x="57" y="409.3" width="66.8" height="15"/><text class="cls-5" transform="translate(7.7 416)">2015</text><text class="cls-5" transform="translate(7.7 484.9)">2016</text><rect class="cls-2" x="57" y="538.6" width="133.6" height="15"/><rect class="cls-1" x="57" y="522.6" width="267.1" height="15"/><rect class="cls-4" x="57" y="554.7" width="33.4" height="15"/><text class="cls-5" transform="translate(7.7 553.2)">2017</text><text class="cls-5" transform="translate(7.7 622.1)">2018</text><rect class="cls-2" x="57" y="684.3" width="33.4" height="15"/><rect class="cls-1" x="57" y="667.9" width="133.6" height="15"/><text class="cls-5" transform="translate(7.7 690.9)">2019</text><text class="cls-7" transform="translate(51.5 743.5)">0</text><text class="cls-7" transform="translate(118.5 743.5)">2</text><text class="cls-7" transform="translate(185.5 743.5)">4</text><text class="cls-7" transform="translate(251.5 743.5)">6</text><text class="cls-7" transform="translate(317.5 743.5)">8</text><text class="cls-7" transform="translate(381.3 743.5)">10</text><text class="cls-8" transform="translate(365.7 768.2)">次數</text><text class="cls-9" transform="translate(162.8 64.8)">南投</text><circle class="cls-2" cx="148.7" cy="60" r="10"/><text class="cls-9" transform="translate(88.1 64.8)">苗栗</text><circle class="cls-1" cx="74" cy="60" r="10"/><text class="cls-9" transform="translate(237.5 64.8)">台中</text><circle class="cls-3" cx="223.3" cy="60" r="10"/><text class="cls-9" transform="translate(312.1 64.8)">彰化</text><circle class="cls-4" cx="298" cy="60" r="10"/><line class="cls-10" x1="57" y1="127" x2="57" y2="700"/><line class="cls-10" x1="123.8" y1="127" x2="123.8" y2="700"/><line class="cls-10" x1="190.6" y1="127" x2="190.6" y2="700"/><line class="cls-10" x1="257.4" y1="127" x2="257.4" y2="700"/><line class="cls-10" x1="324.2" y1="127" x2="324.2" y2="700"/><line class="cls-10" x1="391" y1="127" x2="391" y2="700"/></g></svg>