<svg xmlns="http://www.w3.org/2000/svg" viewBox="0 0 1536 1208"><defs><style>.cls-1{font-size:40px;}.cls-1,.cls-6,.cls-9{fill:#878787;}.cls-1,.cls-6{font-family:ArialMT, Arial;}.cls-2{fill:#5497a7;}.cls-3{fill:#cfd2b2;}.cls-4{fill:#456990;}.cls-5{fill:#9c9990;}.cls-6,.cls-8,.cls-9{font-size:28px;}.cls-7{letter-spacing:-0.07em;}.cls-8,.cls-9{font-family:SourceHanSansTW-Light-B5pc-H, Source Han Sans TW;}.cls-10{fill:none;stroke:#d1d1d1;stroke-miterlimit:10;stroke-width:1.13px;}</style></defs><title>圖表1_1</title><g id="web圖表1"><text class="cls-1" transform="translate(86.3 931.9)">0</text><text class="cls-1" transform="translate(86.3 783.5)">2</text><text class="cls-1" transform="translate(86.3 635.2)">4</text><text class="cls-1" transform="translate(86.3 486.8)">6</text><text class="cls-1" transform="translate(86.3 338.4)">8</text><text class="cls-1" transform="translate(64.1 190)">10</text><rect class="cls-2" x="1309.5" y="838" width="22.5" height="74.19"/><rect class="cls-3" x="1284.1" y="615.4" width="22.5" height="296.74"/><rect class="cls-3" x="874.6" y="318.7" width="22.5" height="593.49"/><rect class="cls-2" x="900.1" y="763.8" width="22.5" height="148.37"/><rect class="cls-2" x="625.8" y="763.8" width="22.5" height="148.37"/><rect class="cls-3" x="600.3" y="541.2" width="22.5" height="370.93"/><rect class="cls-3" x="1124.2" y="244.5" width="22.5" height="667.67"/><rect class="cls-4" x="1175.3" y="838" width="22.5" height="74.19"/><rect class="cls-2" x="1149.8" y="763.8" width="22.5" height="148.37"/><rect class="cls-5" x="1200.7" y="838" width="22.5" height="74.19"/><rect class="cls-2" x="476.5" y="838" width="22" height="74.19"/><rect class="cls-4" x="501.5" y="763.8" width="22" height="148.37"/><rect class="cls-3" x="451.6" y="392.9" width="22" height="519.3"/><rect class="cls-3" x="737.5" y="170.3" width="22.5" height="741.86"/><rect class="cls-4" x="763.3" y="763.8" width="22.5" height="148.37"/><rect class="cls-2" x="1024.8" y="615.4" width="22.5" height="296.74"/><rect class="cls-3" x="999.7" y="318.7" width="22.5" height="593.49"/><rect class="cls-5" x="1049.8" y="838" width="22.5" height="74.19"/><rect class="cls-2" x="350.6" y="838" width="22" height="74.19"/><rect class="cls-3" x="325.7" y="689.6" width="22" height="222.56"/><rect class="cls-2" x="201.4" y="838" width="22.5" height="74.19"/><text class="cls-6" transform="translate(180.7 973.8)">20<tspan class="cls-7" x="31.1" y="0">1</tspan><tspan x="44.6" y="0">1</tspan></text><text class="cls-6" transform="translate(318.7 973.8)">2012</text><text class="cls-6" transform="translate(454.7 973.8)">2013</text><text class="cls-6" transform="translate(592.7 973.8)">2014</text><text class="cls-6" transform="translate(716.7 973.8)">2015</text><text class="cls-6" transform="translate(868.7 973.8)">2016</text><text class="cls-6" transform="translate(1003.7 973.8)">2017</text><text class="cls-6" transform="translate(1140.7 973.8)">2018</text><text class="cls-6" transform="translate(1275.7 973.8)">2019</text><text class="cls-8" transform="translate(677.7 1108.4)">南投</text><circle class="cls-2" cx="651.5" cy="1099.5" r="18.5"/><text class="cls-9" transform="translate(62.7 109.3)">次數</text><text class="cls-8" transform="translate(521.7 1108.4)">苗栗</text><circle class="cls-3" cx="495.5" cy="1099.5" r="18.5"/><text class="cls-8" transform="translate(833.7 1108.4)">台中</text><circle class="cls-4" cx="807.5" cy="1099.5" r="18.5"/><text class="cls-8" transform="translate(989.7 1108.4)">彰化</text><circle class="cls-5" cx="963.5" cy="1099.5" r="18.5"/><line class="cls-10" x1="126" y1="912.5" x2="1394" y2="912.5"/><line class="cls-10" x1="126" y1="763.8" x2="1394" y2="763.8"/><line class="cls-10" x1="126" y1="615.4" x2="1394" y2="615.4"/><line class="cls-10" x1="126" y1="467.1" x2="1394" y2="467.1"/><line class="cls-10" x1="126" y1="318.7" x2="1394" y2="318.7"/><line class="cls-10" x1="126" y1="170.3" x2="1394" y2="170.3"/></g></svg>